<svg xmlns="http://www.w3.org/2000/svg" xmlns:xlink="http://www.w3.org/1999/xlink" version="1.1" id="Camada_1" x="0px" y="0px" viewBox="0 0 60 60" style="enable-background:new 0 0 60 60;" xml:space="preserve">
<style type="text/css">
	.st0{fill:#ffffff;}
</style>
<g>
	<path class="st0" d="M8.9,14.2H51c2.9,0,5.3-2.4,5.3-5.3S53.9,3.6,51,3.6H8.9C6,3.7,3.7,6,3.7,8.9S6,14.2,8.9,14.2L8.9,14.2z" fill="#ffffff000"/>
	<path class="st0" d="M51.1,24.7H8.9c-2.9,0-5.3,2.4-5.3,5.3s2.4,5.3,5.3,5.3H51c2.9,0,5.3-2.4,5.3-5.3S54,24.7,51.1,24.7L51.1,24.7   z" fill="#ffffff000"/>
	<path class="st0" d="M51.1,45.8H8.9c-2.9,0-5.3,2.4-5.3,5.3c0,2.9,2.4,5.3,5.3,5.3H51c2.9,0,5.3-2.4,5.3-5.3S54,45.8,51.1,45.8   L51.1,45.8z" fill="#ffffff000"/>
</g>
</svg>